<mxfile host="app.diagrams.net" modified="2024-02-28T18:23:56.012Z" agent="Mozilla/5.0 (Macintosh; Intel Mac OS X 10_15_7) AppleWebKit/537.36 (KHTML, like Gecko) Chrome/121.0.0.0 Safari/537.36" etag="-XKKgWAXsvRjDgmOsc-h" version="23.1.7" type="onedrive">
  <diagram name="第 1 页" id="z4h7VEMzl020LXnH8Pfw">
    <mxGraphModel grid="1" page="1" gridSize="10" guides="1" tooltips="1" connect="1" arrows="1" fold="1" pageScale="1" pageWidth="1200" pageHeight="500" math="0" shadow="0">
      <root>
        <mxCell id="0" />
        <mxCell id="1" parent="0" />
        <mxCell id="RTcqO30vx9vtHRIOd7rX-12" style="rounded=0;orthogonalLoop=1;jettySize=auto;html=1;exitX=0;exitY=1;exitDx=0;exitDy=0;" edge="1" parent="1" source="RTcqO30vx9vtHRIOd7rX-1" target="RTcqO30vx9vtHRIOd7rX-7">
          <mxGeometry relative="1" as="geometry" />
        </mxCell>
        <mxCell id="RTcqO30vx9vtHRIOd7rX-1" value="&lt;i&gt;OC&lt;/i&gt;" style="ellipse;whiteSpace=wrap;html=1;aspect=fixed;" vertex="1" parent="1">
          <mxGeometry x="390" y="80" width="80" height="80" as="geometry" />
        </mxCell>
        <mxCell id="RTcqO30vx9vtHRIOd7rX-17" style="rounded=0;orthogonalLoop=1;jettySize=auto;html=1;exitX=0;exitY=1;exitDx=0;exitDy=0;entryX=1;entryY=0;entryDx=0;entryDy=0;" edge="1" parent="1" source="RTcqO30vx9vtHRIOd7rX-3" target="RTcqO30vx9vtHRIOd7rX-6">
          <mxGeometry relative="1" as="geometry" />
        </mxCell>
        <mxCell id="RTcqO30vx9vtHRIOd7rX-19" style="rounded=0;orthogonalLoop=1;jettySize=auto;html=1;exitX=1;exitY=1;exitDx=0;exitDy=0;entryX=0;entryY=0;entryDx=0;entryDy=0;" edge="1" parent="1" source="RTcqO30vx9vtHRIOd7rX-3" target="RTcqO30vx9vtHRIOd7rX-5">
          <mxGeometry relative="1" as="geometry" />
        </mxCell>
        <mxCell id="RTcqO30vx9vtHRIOd7rX-3" value="&lt;i&gt;Fraud&lt;/i&gt;" style="ellipse;whiteSpace=wrap;html=1;" vertex="1" parent="1">
          <mxGeometry x="650" y="80" width="80" height="80" as="geometry" />
        </mxCell>
        <mxCell id="RTcqO30vx9vtHRIOd7rX-10" style="rounded=0;orthogonalLoop=1;jettySize=auto;html=1;exitX=0;exitY=1;exitDx=0;exitDy=0;entryX=1;entryY=0;entryDx=0;entryDy=0;" edge="1" parent="1" source="RTcqO30vx9vtHRIOd7rX-4" target="RTcqO30vx9vtHRIOd7rX-5">
          <mxGeometry relative="1" as="geometry" />
        </mxCell>
        <mxCell id="RTcqO30vx9vtHRIOd7rX-14" style="rounded=0;orthogonalLoop=1;jettySize=auto;html=1;" edge="1" parent="1" source="RTcqO30vx9vtHRIOd7rX-4" target="RTcqO30vx9vtHRIOd7rX-3">
          <mxGeometry relative="1" as="geometry" />
        </mxCell>
        <mxCell id="RTcqO30vx9vtHRIOd7rX-4" value="&lt;i&gt;Trav&lt;/i&gt;" style="ellipse;whiteSpace=wrap;html=1;" vertex="1" parent="1">
          <mxGeometry x="910" y="80" width="80" height="80" as="geometry" />
        </mxCell>
        <mxCell id="RTcqO30vx9vtHRIOd7rX-5" value="&lt;i&gt;FP&lt;/i&gt;" style="ellipse;whiteSpace=wrap;html=1;" vertex="1" parent="1">
          <mxGeometry x="780" y="320" width="80" height="80" as="geometry" />
        </mxCell>
        <mxCell id="RTcqO30vx9vtHRIOd7rX-6" value="&lt;i&gt;IP&lt;/i&gt;" style="ellipse;whiteSpace=wrap;html=1;" vertex="1" parent="1">
          <mxGeometry x="520" y="320" width="80" height="80" as="geometry" />
        </mxCell>
        <mxCell id="RTcqO30vx9vtHRIOd7rX-7" value="&lt;i&gt;CRP&lt;/i&gt;" style="ellipse;whiteSpace=wrap;html=1;" vertex="1" parent="1">
          <mxGeometry x="260" y="320" width="80" height="80" as="geometry" />
        </mxCell>
        <mxCell id="RTcqO30vx9vtHRIOd7rX-8" value="" style="endArrow=classic;html=1;rounded=0;entryX=0;entryY=0;entryDx=0;entryDy=0;exitX=1;exitY=1;exitDx=0;exitDy=0;" edge="1" parent="1" source="RTcqO30vx9vtHRIOd7rX-1" target="RTcqO30vx9vtHRIOd7rX-6">
          <mxGeometry width="50" height="50" relative="1" as="geometry">
            <mxPoint x="470" y="120" as="sourcePoint" />
            <mxPoint x="520" y="70" as="targetPoint" />
          </mxGeometry>
        </mxCell>
        <mxCell id="RTcqO30vx9vtHRIOd7rX-21" value="P(OC=true) = 0.60" style="rounded=0;whiteSpace=wrap;html=1;" vertex="1" parent="1">
          <mxGeometry x="270" y="105" width="120" height="30" as="geometry" />
        </mxCell>
        <mxCell id="RTcqO30vx9vtHRIOd7rX-22" value="P(Trav = true) = 0.05" style="whiteSpace=wrap;html=1;" vertex="1" parent="1">
          <mxGeometry x="990" y="105" width="130" height="30" as="geometry" />
        </mxCell>
        <mxCell id="RTcqO30vx9vtHRIOd7rX-23" value="&amp;nbsp;P(CRP = true | OC = true)&amp;nbsp; = 0.10&lt;br&gt;&amp;nbsp;P(CRP = true | OC = false)&amp;nbsp; = 0.001" style="rounded=0;whiteSpace=wrap;html=1;align=center;" vertex="1" parent="1">
          <mxGeometry x="60" y="340" width="200" height="40" as="geometry" />
        </mxCell>
        <mxCell id="RTcqO30vx9vtHRIOd7rX-24" value="P(Fraud = true | Trav = true) = 0.01&lt;br&gt;P(Fraud = true | Trav = false) = 0.004" style="rounded=0;whiteSpace=wrap;html=1;" vertex="1" parent="1">
          <mxGeometry x="585" y="40" width="210" height="40" as="geometry" />
        </mxCell>
        <mxCell id="RTcqO30vx9vtHRIOd7rX-25" value="P(FP = true | Trav = false, Fraud = false) = 0.01&lt;br&gt;P(FP = true | Trav = false, Fraud = true) = 0.1&lt;br&gt;P(FP = true | Trav = true, Fraud = true) = 0.9&lt;br&gt;P(FP = true | Trav = true, Fraud = false) = 0.9" style="whiteSpace=wrap;html=1;" vertex="1" parent="1">
          <mxGeometry x="860" y="330" width="320" height="60" as="geometry" />
        </mxCell>
        <mxCell id="yMYtWnI0apKlo0dxyGEp-1" value="P(IP = true | OC = false, Fraud = false) =&amp;nbsp; 0.001&lt;br&gt;P(IP = true | OC = false, Fraud = true) = 0.011&lt;br&gt;P(IP = true | OC = true, Fraud = false) = 0.01&amp;nbsp;&lt;br&gt;P(IP = true | OC = true, Fraud = true) = 0.02&amp;nbsp;" style="rounded=0;whiteSpace=wrap;html=1;" vertex="1" parent="1">
          <mxGeometry x="425" y="400" width="270" height="60" as="geometry" />
        </mxCell>
      </root>
    </mxGraphModel>
  </diagram>
</mxfile>
